<svg width="58" height="10" viewBox="0 0 58 10" fill="none" xmlns="http://www.w3.org/2000/svg">
<g clip-path="url(#clip0_86_881)">
<path d="M4.9695 1.62287C4.98776 1.58598 5.01597 1.55493 5.05094 1.53322C5.08591 1.51151 5.12626 1.5 5.16742 1.5C5.20858 1.5 5.24892 1.51151 5.2839 1.53322C5.31887 1.55493 5.34708 1.58598 5.36534 1.62287L6.32783 3.57246C6.39124 3.70078 6.48484 3.81179 6.6006 3.89598C6.71635 3.98016 6.8508 4.035 6.99242 4.05579L9.14492 4.37079C9.1857 4.3767 9.22402 4.3939 9.25554 4.42046C9.28706 4.44701 9.31051 4.48185 9.32326 4.52104C9.33601 4.56023 9.33753 4.60221 9.32766 4.64222C9.31779 4.68223 9.29693 4.71869 9.26742 4.74746L7.71075 6.26329C7.60809 6.36333 7.53128 6.48682 7.48693 6.62313C7.44258 6.75945 7.43203 6.90449 7.45617 7.04579L7.82367 9.18746C7.83087 9.22822 7.82646 9.27019 7.81096 9.30857C7.79545 9.34696 7.76947 9.38021 7.73598 9.40454C7.70248 9.42887 7.66283 9.44329 7.62153 9.44616C7.58023 9.44904 7.53896 9.44024 7.50242 9.42079L5.57825 8.40912C5.45147 8.34255 5.31041 8.30777 5.16721 8.30777C5.02401 8.30777 4.88295 8.34255 4.75617 8.40912L2.83242 9.42079C2.79589 9.44013 2.75467 9.44883 2.71344 9.4459C2.67221 9.44297 2.63263 9.42852 2.59921 9.40421C2.56578 9.3799 2.53985 9.3467 2.52436 9.30838C2.50887 9.27006 2.50444 9.22817 2.51158 9.18746L2.87867 7.04621C2.90292 6.90484 2.89241 6.75971 2.84806 6.62331C2.80371 6.48691 2.72684 6.36335 2.62408 6.26329L1.06742 4.74787C1.03767 4.71914 1.01658 4.68262 1.00657 4.64249C0.996555 4.60235 0.998016 4.56021 1.01078 4.52087C1.02355 4.48152 1.04711 4.44656 1.07878 4.41995C1.11045 4.39334 1.14896 4.37616 1.18992 4.37037L3.342 4.05579C3.48378 4.03516 3.61841 3.9804 3.73433 3.8962C3.85024 3.812 3.94396 3.7009 4.00742 3.57246L4.9695 1.62287Z" fill="#FDC700" stroke="#FDC700" stroke-linecap="round" stroke-linejoin="round"/>
</g>
<g clip-path="url(#clip1_86_881)">
<path d="M16.9695 1.62287C16.9878 1.58598 17.016 1.55493 17.0509 1.53322C17.0859 1.51151 17.1263 1.5 17.1674 1.5C17.2086 1.5 17.2489 1.51151 17.2839 1.53322C17.3189 1.55493 17.3471 1.58598 17.3653 1.62287L18.3278 3.57246C18.3912 3.70078 18.4848 3.81179 18.6006 3.89598C18.7163 3.98016 18.8508 4.035 18.9924 4.05579L21.1449 4.37079C21.1857 4.3767 21.224 4.3939 21.2555 4.42046C21.2871 4.44701 21.3105 4.48185 21.3233 4.52104C21.336 4.56023 21.3375 4.60221 21.3277 4.64222C21.3178 4.68223 21.2969 4.71869 21.2674 4.74746L19.7107 6.26329C19.6081 6.36333 19.5313 6.48682 19.4869 6.62313C19.4426 6.75945 19.432 6.90449 19.4562 7.04579L19.8237 9.18746C19.8309 9.22822 19.8265 9.27019 19.811 9.30857C19.7954 9.34696 19.7695 9.38021 19.736 9.40454C19.7025 9.42887 19.6628 9.44329 19.6215 9.44616C19.5802 9.44904 19.539 9.44024 19.5024 9.42079L17.5782 8.40912C17.4515 8.34255 17.3104 8.30777 17.1672 8.30777C17.024 8.30777 16.8829 8.34255 16.7562 8.40912L14.8324 9.42079C14.7959 9.44013 14.7547 9.44883 14.7134 9.4459C14.6722 9.44297 14.6326 9.42852 14.5992 9.40421C14.5658 9.3799 14.5398 9.3467 14.5244 9.30838C14.5089 9.27006 14.5044 9.22817 14.5116 9.18746L14.8787 7.04621C14.9029 6.90484 14.8924 6.75971 14.8481 6.62331C14.8037 6.48691 14.7268 6.36335 14.6241 6.26329L13.0674 4.74787C13.0377 4.71914 13.0166 4.68262 13.0066 4.64249C12.9966 4.60235 12.998 4.56021 13.0108 4.52087C13.0235 4.48152 13.0471 4.44656 13.0788 4.41995C13.1104 4.39334 13.149 4.37616 13.1899 4.37037L15.342 4.05579C15.4838 4.03516 15.6184 3.9804 15.7343 3.8962C15.8502 3.812 15.944 3.7009 16.0074 3.57246L16.9695 1.62287Z" fill="#FDC700" stroke="#FDC700" stroke-linecap="round" stroke-linejoin="round"/>
</g>
<g clip-path="url(#clip2_86_881)">
<path d="M28.9695 1.62287C28.9878 1.58598 29.016 1.55493 29.0509 1.53322C29.0859 1.51151 29.1263 1.5 29.1674 1.5C29.2086 1.5 29.2489 1.51151 29.2839 1.53322C29.3189 1.55493 29.3471 1.58598 29.3653 1.62287L30.3278 3.57246C30.3912 3.70078 30.4848 3.81179 30.6006 3.89598C30.7163 3.98016 30.8508 4.035 30.9924 4.05579L33.1449 4.37079C33.1857 4.3767 33.224 4.3939 33.2555 4.42046C33.2871 4.44701 33.3105 4.48185 33.3233 4.52104C33.336 4.56023 33.3375 4.60221 33.3277 4.64222C33.3178 4.68223 33.2969 4.71869 33.2674 4.74746L31.7107 6.26329C31.6081 6.36333 31.5313 6.48682 31.4869 6.62313C31.4426 6.75945 31.432 6.90449 31.4562 7.04579L31.8237 9.18746C31.8309 9.22822 31.8265 9.27019 31.811 9.30857C31.7954 9.34696 31.7695 9.38021 31.736 9.40454C31.7025 9.42887 31.6628 9.44329 31.6215 9.44616C31.5802 9.44904 31.539 9.44024 31.5024 9.42079L29.5782 8.40912C29.4515 8.34255 29.3104 8.30777 29.1672 8.30777C29.024 8.30777 28.8829 8.34255 28.7562 8.40912L26.8324 9.42079C26.7959 9.44013 26.7547 9.44883 26.7134 9.4459C26.6722 9.44297 26.6326 9.42852 26.5992 9.40421C26.5658 9.3799 26.5398 9.3467 26.5244 9.30838C26.5089 9.27006 26.5044 9.22817 26.5116 9.18746L26.8787 7.04621C26.9029 6.90484 26.8924 6.75971 26.8481 6.62331C26.8037 6.48691 26.7268 6.36335 26.6241 6.26329L25.0674 4.74787C25.0377 4.71914 25.0166 4.68262 25.0066 4.64249C24.9966 4.60235 24.998 4.56021 25.0108 4.52087C25.0235 4.48152 25.0471 4.44656 25.0788 4.41995C25.1104 4.39334 25.149 4.37616 25.1899 4.37037L27.342 4.05579C27.4838 4.03516 27.6184 3.9804 27.7343 3.8962C27.8502 3.812 27.944 3.7009 28.0074 3.57246L28.9695 1.62287Z" fill="#FDC700" stroke="#FDC700" stroke-linecap="round" stroke-linejoin="round"/>
</g>
<g clip-path="url(#clip3_86_881)">
<path d="M40.9695 1.62287C40.9878 1.58598 41.016 1.55493 41.0509 1.53322C41.0859 1.51151 41.1263 1.5 41.1674 1.5C41.2086 1.5 41.2489 1.51151 41.2839 1.53322C41.3189 1.55493 41.3471 1.58598 41.3653 1.62287L42.3278 3.57246C42.3912 3.70078 42.4848 3.81179 42.6006 3.89598C42.7163 3.98016 42.8508 4.035 42.9924 4.05579L45.1449 4.37079C45.1857 4.3767 45.224 4.3939 45.2555 4.42046C45.2871 4.44701 45.3105 4.48185 45.3233 4.52104C45.336 4.56023 45.3375 4.60221 45.3277 4.64222C45.3178 4.68223 45.2969 4.71869 45.2674 4.74746L43.7107 6.26329C43.6081 6.36333 43.5313 6.48682 43.4869 6.62313C43.4426 6.75945 43.432 6.90449 43.4562 7.04579L43.8237 9.18746C43.8309 9.22822 43.8265 9.27019 43.811 9.30857C43.7954 9.34696 43.7695 9.38021 43.736 9.40454C43.7025 9.42887 43.6628 9.44329 43.6215 9.44616C43.5802 9.44904 43.539 9.44024 43.5024 9.42079L41.5782 8.40912C41.4515 8.34255 41.3104 8.30777 41.1672 8.30777C41.024 8.30777 40.8829 8.34255 40.7562 8.40912L38.8324 9.42079C38.7959 9.44013 38.7547 9.44883 38.7134 9.4459C38.6722 9.44297 38.6326 9.42852 38.5992 9.40421C38.5658 9.3799 38.5398 9.3467 38.5244 9.30838C38.5089 9.27006 38.5044 9.22817 38.5116 9.18746L38.8787 7.04621C38.9029 6.90484 38.8924 6.75971 38.8481 6.62331C38.8037 6.48691 38.7268 6.36335 38.6241 6.26329L37.0674 4.74787C37.0377 4.71914 37.0166 4.68262 37.0066 4.64249C36.9966 4.60235 36.998 4.56021 37.0108 4.52087C37.0235 4.48152 37.0471 4.44656 37.0788 4.41995C37.1104 4.39334 37.149 4.37616 37.1899 4.37037L39.342 4.05579C39.4838 4.03516 39.6184 3.9804 39.7343 3.8962C39.8502 3.812 39.944 3.7009 40.0074 3.57246L40.9695 1.62287Z" fill="#FDC700" stroke="#FDC700" stroke-linecap="round" stroke-linejoin="round"/>
</g>
<g clip-path="url(#clip4_86_881)">
<path d="M52.9695 1.62287C52.9878 1.58598 53.016 1.55493 53.0509 1.53322C53.0859 1.51151 53.1263 1.5 53.1674 1.5C53.2086 1.5 53.2489 1.51151 53.2839 1.53322C53.3189 1.55493 53.3471 1.58598 53.3653 1.62287L54.3278 3.57246C54.3912 3.70078 54.4848 3.81179 54.6006 3.89598C54.7163 3.98016 54.8508 4.035 54.9924 4.05579L57.1449 4.37079C57.1857 4.3767 57.224 4.3939 57.2555 4.42046C57.2871 4.44701 57.3105 4.48185 57.3233 4.52104C57.336 4.56023 57.3375 4.60221 57.3277 4.64222C57.3178 4.68223 57.2969 4.71869 57.2674 4.74746L55.7107 6.26329C55.6081 6.36333 55.5313 6.48682 55.4869 6.62313C55.4426 6.75945 55.432 6.90449 55.4562 7.04579L55.8237 9.18746C55.8309 9.22822 55.8265 9.27019 55.811 9.30857C55.7954 9.34696 55.7695 9.38021 55.736 9.40454C55.7025 9.42887 55.6628 9.44329 55.6215 9.44616C55.5802 9.44904 55.539 9.44024 55.5024 9.42079L53.5782 8.40912C53.4515 8.34255 53.3104 8.30777 53.1672 8.30777C53.024 8.30777 52.8829 8.34255 52.7562 8.40912L50.8324 9.42079C50.7959 9.44013 50.7547 9.44883 50.7134 9.4459C50.6722 9.44297 50.6326 9.42852 50.5992 9.40421C50.5658 9.3799 50.5398 9.3467 50.5244 9.30838C50.5089 9.27006 50.5044 9.22817 50.5116 9.18746L50.8787 7.04621C50.9029 6.90484 50.8924 6.75971 50.8481 6.62331C50.8037 6.48691 50.7268 6.36335 50.6241 6.26329L49.0674 4.74787C49.0377 4.71914 49.0166 4.68262 49.0066 4.64249C48.9966 4.60235 48.998 4.56021 49.0108 4.52087C49.0235 4.48152 49.0471 4.44656 49.0788 4.41995C49.1104 4.39334 49.149 4.37616 49.1899 4.37037L51.342 4.05579C51.4838 4.03516 51.6184 3.9804 51.7343 3.8962C51.8502 3.812 51.944 3.7009 52.0074 3.57246L52.9695 1.62287Z" fill="#FDC700" stroke="#FDC700" stroke-linecap="round" stroke-linejoin="round"/>
</g>
<defs>
<clipPath id="clip0_86_881">
<rect width="10" height="10" fill="white"/>
</clipPath>
<clipPath id="clip1_86_881">
<rect width="10" height="10" fill="white" transform="translate(12)"/>
</clipPath>
<clipPath id="clip2_86_881">
<rect width="10" height="10" fill="white" transform="translate(24)"/>
</clipPath>
<clipPath id="clip3_86_881">
<rect width="10" height="10" fill="white" transform="translate(36)"/>
</clipPath>
<clipPath id="clip4_86_881">
<rect width="10" height="10" fill="white" transform="translate(48)"/>
</clipPath>
</defs>
</svg>
