<svg width="17" height="17" viewBox="0 0 17 17" fill="none" xmlns="http://www.w3.org/2000/svg">
<path d="M9.624 11.676C9.77889 11.7471 9.9534 11.7634 10.1188 11.7221C10.2841 11.6808 10.4305 11.5844 10.5338 11.4487L10.8 11.1C10.9397 10.9137 11.1209 10.7625 11.3292 10.6584C11.5375 10.5542 11.7671 10.5 12 10.5H14.25C14.6478 10.5 15.0294 10.658 15.3107 10.9393C15.592 11.2206 15.75 11.6022 15.75 12V14.25C15.75 14.6478 15.592 15.0294 15.3107 15.3107C15.0294 15.592 14.6478 15.75 14.25 15.75C10.6696 15.75 7.2358 14.3277 4.70406 11.7959C2.17232 9.2642 0.75 5.83042 0.75 2.25C0.75 1.85218 0.908035 1.47064 1.18934 1.18934C1.47064 0.908035 1.85218 0.75 2.25 0.75H4.5C4.89782 0.75 5.27936 0.908035 5.56066 1.18934C5.84196 1.47064 6 1.85218 6 2.25V4.5C6 4.73287 5.94578 4.96254 5.84164 5.17082C5.7375 5.3791 5.58629 5.56028 5.4 5.7L5.049 5.96325C4.91131 6.06838 4.81426 6.21794 4.77434 6.38651C4.73442 6.55509 4.75409 6.73228 4.83 6.888C5.85501 8.9699 7.54082 10.6536 9.624 11.676Z" stroke="#F25C05" stroke-width="1.5" stroke-linecap="round" stroke-linejoin="round"/>
</svg>
