<svg width="96" height="16" viewBox="0 0 96 16" fill="none" xmlns="http://www.w3.org/2000/svg">
<g clip-path="url(#clip0_191_204)">
<path d="M7.68335 1.52997C7.71257 1.47094 7.7577 1.42126 7.81365 1.38652C7.86961 1.35178 7.93416 1.33337 8.00002 1.33337C8.06588 1.33337 8.13043 1.35178 8.18638 1.38652C8.24234 1.42126 8.28747 1.47094 8.31669 1.52997L9.85669 4.6493C9.95814 4.85461 10.1079 5.03224 10.2931 5.16694C10.4783 5.30164 10.6934 5.38938 10.92 5.42264L14.364 5.92664C14.4293 5.93609 14.4906 5.96362 14.541 6.0061C14.5914 6.04859 14.629 6.10434 14.6494 6.16704C14.6698 6.22975 14.6722 6.29691 14.6564 6.36093C14.6406 6.42495 14.6072 6.48327 14.56 6.5293L12.0694 8.95464C11.9051 9.1147 11.7822 9.31229 11.7112 9.53039C11.6403 9.74849 11.6234 9.98056 11.662 10.2066L12.25 13.6333C12.2615 13.6985 12.2545 13.7657 12.2297 13.8271C12.2049 13.8885 12.1633 13.9417 12.1097 13.9806C12.0561 14.0196 11.9927 14.0426 11.9266 14.0472C11.8605 14.0518 11.7945 14.0378 11.736 14.0066L8.65735 12.388C8.4545 12.2815 8.22881 12.2258 7.99969 12.2258C7.77057 12.2258 7.54487 12.2815 7.34202 12.388L4.26402 14.0066C4.20557 14.0376 4.13962 14.0515 4.07365 14.0468C4.00769 14.0421 3.94437 14.019 3.89088 13.9801C3.8374 13.9412 3.79591 13.8881 3.77112 13.8268C3.74634 13.7655 3.73926 13.6984 3.75069 13.6333L4.33802 10.2073C4.37682 9.98112 4.36001 9.7489 4.28904 9.53067C4.21808 9.31243 4.09509 9.11474 3.93069 8.95464L1.44002 6.52997C1.39242 6.48399 1.35868 6.42557 1.34266 6.36135C1.32664 6.29714 1.32898 6.22971 1.34941 6.16676C1.36983 6.10381 1.40753 6.04786 1.4582 6.00529C1.50888 5.96272 1.57049 5.93524 1.63602 5.92597L5.07935 5.42264C5.30619 5.38964 5.52161 5.30201 5.70708 5.16729C5.89254 5.03258 6.04249 4.85482 6.14402 4.6493L7.68335 1.52997Z" fill="#F25C05" stroke="#F25C05" stroke-width="1.33333" stroke-linecap="round" stroke-linejoin="round"/>
</g>
<g clip-path="url(#clip1_191_204)">
<path d="M27.6834 1.52997C27.7126 1.47094 27.7577 1.42126 27.8137 1.38652C27.8696 1.35178 27.9342 1.33337 28 1.33337C28.0659 1.33337 28.1304 1.35178 28.1864 1.38652C28.2423 1.42126 28.2875 1.47094 28.3167 1.52997L29.8567 4.6493C29.9581 4.85461 30.1079 5.03224 30.2931 5.16694C30.4783 5.30164 30.6934 5.38938 30.92 5.42264L34.364 5.92664C34.4293 5.93609 34.4906 5.96362 34.541 6.0061C34.5914 6.04859 34.629 6.10434 34.6494 6.16704C34.6698 6.22975 34.6722 6.29691 34.6564 6.36093C34.6406 6.42495 34.6072 6.48327 34.56 6.5293L32.0694 8.95464C31.9051 9.1147 31.7822 9.31229 31.7112 9.53039C31.6403 9.74849 31.6234 9.98056 31.662 10.2066L32.25 13.6333C32.2615 13.6985 32.2545 13.7657 32.2297 13.8271C32.2049 13.8885 32.1633 13.9417 32.1097 13.9806C32.0561 14.0196 31.9927 14.0426 31.9266 14.0472C31.8605 14.0518 31.7945 14.0378 31.736 14.0066L28.6574 12.388C28.4545 12.2815 28.2288 12.2258 27.9997 12.2258C27.7706 12.2258 27.5449 12.2815 27.342 12.388L24.264 14.0066C24.2056 14.0376 24.1396 14.0515 24.0737 14.0468C24.0077 14.0421 23.9444 14.019 23.8909 13.9801C23.8374 13.9412 23.7959 13.8881 23.7711 13.8268C23.7463 13.7655 23.7393 13.6984 23.7507 13.6333L24.338 10.2073C24.3768 9.98112 24.36 9.7489 24.289 9.53067C24.2181 9.31243 24.0951 9.11474 23.9307 8.95464L21.44 6.52997C21.3924 6.48399 21.3587 6.42557 21.3427 6.36135C21.3266 6.29714 21.329 6.22971 21.3494 6.16676C21.3698 6.10381 21.4075 6.04786 21.4582 6.00529C21.5089 5.96272 21.5705 5.93524 21.636 5.92597L25.0794 5.42264C25.3062 5.38964 25.5216 5.30201 25.7071 5.16729C25.8925 5.03258 26.0425 4.85482 26.144 4.6493L27.6834 1.52997Z" fill="#F25C05" stroke="#F25C05" stroke-width="1.33333" stroke-linecap="round" stroke-linejoin="round"/>
</g>
<g clip-path="url(#clip2_191_204)">
<path d="M47.6834 1.52997C47.7126 1.47094 47.7577 1.42126 47.8137 1.38652C47.8696 1.35178 47.9342 1.33337 48 1.33337C48.0659 1.33337 48.1304 1.35178 48.1864 1.38652C48.2423 1.42126 48.2875 1.47094 48.3167 1.52997L49.8567 4.6493C49.9581 4.85461 50.1079 5.03224 50.2931 5.16694C50.4783 5.30164 50.6934 5.38938 50.92 5.42264L54.364 5.92664C54.4293 5.93609 54.4906 5.96362 54.541 6.0061C54.5914 6.04859 54.629 6.10434 54.6494 6.16704C54.6698 6.22975 54.6722 6.29691 54.6564 6.36093C54.6406 6.42495 54.6072 6.48327 54.56 6.5293L52.0694 8.95464C51.9051 9.1147 51.7822 9.31229 51.7112 9.53039C51.6403 9.74849 51.6234 9.98056 51.662 10.2066L52.25 13.6333C52.2615 13.6985 52.2545 13.7657 52.2297 13.8271C52.2049 13.8885 52.1633 13.9417 52.1097 13.9806C52.0561 14.0196 51.9927 14.0426 51.9266 14.0472C51.8605 14.0518 51.7945 14.0378 51.736 14.0066L48.6574 12.388C48.4545 12.2815 48.2288 12.2258 47.9997 12.2258C47.7706 12.2258 47.5449 12.2815 47.342 12.388L44.264 14.0066C44.2056 14.0376 44.1396 14.0515 44.0737 14.0468C44.0077 14.0421 43.9444 14.019 43.8909 13.9801C43.8374 13.9412 43.7959 13.8881 43.7711 13.8268C43.7463 13.7655 43.7393 13.6984 43.7507 13.6333L44.338 10.2073C44.3768 9.98112 44.36 9.7489 44.289 9.53067C44.2181 9.31243 44.0951 9.11474 43.9307 8.95464L41.44 6.52997C41.3924 6.48399 41.3587 6.42557 41.3427 6.36135C41.3266 6.29714 41.329 6.22971 41.3494 6.16676C41.3698 6.10381 41.4075 6.04786 41.4582 6.00529C41.5089 5.96272 41.5705 5.93524 41.636 5.92597L45.0794 5.42264C45.3062 5.38964 45.5216 5.30201 45.7071 5.16729C45.8925 5.03258 46.0425 4.85482 46.144 4.6493L47.6834 1.52997Z" fill="#F25C05" stroke="#F25C05" stroke-width="1.33333" stroke-linecap="round" stroke-linejoin="round"/>
</g>
<g clip-path="url(#clip3_191_204)">
<path d="M67.6834 1.52997C67.7126 1.47094 67.7577 1.42126 67.8137 1.38652C67.8696 1.35178 67.9342 1.33337 68 1.33337C68.0659 1.33337 68.1304 1.35178 68.1864 1.38652C68.2423 1.42126 68.2875 1.47094 68.3167 1.52997L69.8567 4.6493C69.9581 4.85461 70.1079 5.03224 70.2931 5.16694C70.4783 5.30164 70.6934 5.38938 70.92 5.42264L74.364 5.92664C74.4293 5.93609 74.4906 5.96362 74.541 6.0061C74.5914 6.04859 74.629 6.10434 74.6494 6.16704C74.6698 6.22975 74.6722 6.29691 74.6564 6.36093C74.6406 6.42495 74.6072 6.48327 74.56 6.5293L72.0694 8.95464C71.9051 9.1147 71.7822 9.31229 71.7112 9.53039C71.6403 9.74849 71.6234 9.98056 71.662 10.2066L72.25 13.6333C72.2615 13.6985 72.2545 13.7657 72.2297 13.8271C72.2049 13.8885 72.1633 13.9417 72.1097 13.9806C72.0561 14.0196 71.9927 14.0426 71.9266 14.0472C71.8605 14.0518 71.7945 14.0378 71.736 14.0066L68.6574 12.388C68.4545 12.2815 68.2288 12.2258 67.9997 12.2258C67.7706 12.2258 67.5449 12.2815 67.342 12.388L64.264 14.0066C64.2056 14.0376 64.1396 14.0515 64.0737 14.0468C64.0077 14.0421 63.9444 14.019 63.8909 13.9801C63.8374 13.9412 63.7959 13.8881 63.7711 13.8268C63.7463 13.7655 63.7393 13.6984 63.7507 13.6333L64.338 10.2073C64.3768 9.98112 64.36 9.7489 64.289 9.53067C64.2181 9.31243 64.0951 9.11474 63.9307 8.95464L61.44 6.52997C61.3924 6.48399 61.3587 6.42557 61.3427 6.36135C61.3266 6.29714 61.329 6.22971 61.3494 6.16676C61.3698 6.10381 61.4075 6.04786 61.4582 6.00529C61.5089 5.96272 61.5705 5.93524 61.636 5.92597L65.0794 5.42264C65.3062 5.38964 65.5216 5.30201 65.7071 5.16729C65.8925 5.03258 66.0425 4.85482 66.144 4.6493L67.6834 1.52997Z" fill="#F25C05" stroke="#F25C05" stroke-width="1.33333" stroke-linecap="round" stroke-linejoin="round"/>
</g>
<g clip-path="url(#clip4_191_204)">
<path d="M87.6834 1.52997C87.7126 1.47094 87.7577 1.42126 87.8137 1.38652C87.8696 1.35178 87.9342 1.33337 88 1.33337C88.0659 1.33337 88.1304 1.35178 88.1864 1.38652C88.2423 1.42126 88.2875 1.47094 88.3167 1.52997L89.8567 4.6493C89.9581 4.85461 90.1079 5.03224 90.2931 5.16694C90.4783 5.30164 90.6934 5.38938 90.92 5.42264L94.364 5.92664C94.4293 5.93609 94.4906 5.96362 94.541 6.0061C94.5914 6.04859 94.629 6.10434 94.6494 6.16704C94.6698 6.22975 94.6722 6.29691 94.6564 6.36093C94.6406 6.42495 94.6072 6.48327 94.56 6.5293L92.0694 8.95464C91.9051 9.1147 91.7822 9.31229 91.7112 9.53039C91.6403 9.74849 91.6234 9.98056 91.662 10.2066L92.25 13.6333C92.2615 13.6985 92.2545 13.7657 92.2297 13.8271C92.2049 13.8885 92.1633 13.9417 92.1097 13.9806C92.0561 14.0196 91.9927 14.0426 91.9266 14.0472C91.8605 14.0518 91.7945 14.0378 91.736 14.0066L88.6574 12.388C88.4545 12.2815 88.2288 12.2258 87.9997 12.2258C87.7706 12.2258 87.5449 12.2815 87.342 12.388L84.264 14.0066C84.2056 14.0376 84.1396 14.0515 84.0737 14.0468C84.0077 14.0421 83.9444 14.019 83.8909 13.9801C83.8374 13.9412 83.7959 13.8881 83.7711 13.8268C83.7463 13.7655 83.7393 13.6984 83.7507 13.6333L84.338 10.2073C84.3768 9.98112 84.36 9.7489 84.289 9.53067C84.2181 9.31243 84.0951 9.11474 83.9307 8.95464L81.44 6.52997C81.3924 6.48399 81.3587 6.42557 81.3427 6.36135C81.3266 6.29714 81.329 6.22971 81.3494 6.16676C81.3698 6.10381 81.4075 6.04786 81.4582 6.00529C81.5089 5.96272 81.5705 5.93524 81.636 5.92597L85.0794 5.42264C85.3062 5.38964 85.5216 5.30201 85.7071 5.16729C85.8925 5.03258 86.0425 4.85482 86.144 4.6493L87.6834 1.52997Z" fill="#F25C05" stroke="#F25C05" stroke-width="1.33333" stroke-linecap="round" stroke-linejoin="round"/>
</g>
<defs>
<clipPath id="clip0_191_204">
<rect width="16" height="16" fill="white"/>
</clipPath>
<clipPath id="clip1_191_204">
<rect width="16" height="16" fill="white" transform="translate(20)"/>
</clipPath>
<clipPath id="clip2_191_204">
<rect width="16" height="16" fill="white" transform="translate(40)"/>
</clipPath>
<clipPath id="clip3_191_204">
<rect width="16" height="16" fill="white" transform="translate(60)"/>
</clipPath>
<clipPath id="clip4_191_204">
<rect width="16" height="16" fill="white" transform="translate(80)"/>
</clipPath>
</defs>
</svg>
