<svg width="32" height="32" viewBox="0 0 32 32" fill="none" xmlns="http://www.w3.org/2000/svg">
<path d="M25.3333 9.33333V5.33333C25.3333 4.97971 25.1929 4.64057 24.9428 4.39052C24.6928 4.14048 24.3536 4 24 4H6.66667C5.95942 4 5.28115 4.28095 4.78105 4.78105C4.28095 5.28115 4 5.95942 4 6.66667C4 7.37391 4.28095 8.05219 4.78105 8.55229C5.28115 9.05238 5.95942 9.33333 6.66667 9.33333H26.6667C27.0203 9.33333 27.3594 9.47381 27.6095 9.72386C27.8595 9.97391 28 10.313 28 10.6667V16M28 16H24C23.2928 16 22.6145 16.281 22.1144 16.781C21.6143 17.2811 21.3333 17.9594 21.3333 18.6667C21.3333 19.3739 21.6143 20.0522 22.1144 20.5523C22.6145 21.0524 23.2928 21.3333 24 21.3333H28C28.3536 21.3333 28.6928 21.1929 28.9428 20.9428C29.1929 20.6928 29.3333 20.3536 29.3333 20V17.3333C29.3333 16.9797 29.1929 16.6406 28.9428 16.3905C28.6928 16.1405 28.3536 16 28 16Z" stroke="#F8F8F8" stroke-width="2.66667" stroke-linecap="round" stroke-linejoin="round"/>
<path d="M4 6.66663V25.3333C4 26.0405 4.28095 26.7188 4.78105 27.2189C5.28115 27.719 5.95942 28 6.66667 28H26.6667C27.0203 28 27.3594 27.8595 27.6095 27.6094C27.8595 27.3594 28 27.0202 28 26.6666V21.3333" stroke="#F8F8F8" stroke-width="2.66667" stroke-linecap="round" stroke-linejoin="round"/>
</svg>
