<svg width="32" height="32" viewBox="0 0 32 32" fill="none" xmlns="http://www.w3.org/2000/svg">
<path d="M26.6667 17.3334C26.6667 24.0001 22 27.3334 16.4534 29.2667C16.1629 29.3652 15.8474 29.3605 15.56 29.2534C10 27.3334 5.33337 24.0001 5.33337 17.3334V8.00007C5.33337 7.64645 5.47385 7.30731 5.7239 7.05726C5.97395 6.80721 6.31309 6.66674 6.66671 6.66674C9.33337 6.66674 12.6667 5.06674 14.9867 3.04007C15.2692 2.79874 15.6285 2.66614 16 2.66614C16.3716 2.66614 16.7309 2.79874 17.0134 3.04007C19.3467 5.08007 22.6667 6.66674 25.3334 6.66674C25.687 6.66674 26.0261 6.80721 26.2762 7.05726C26.5262 7.30731 26.6667 7.64645 26.6667 8.00007V17.3334Z" stroke="#F8F8F8" stroke-width="2.66667" stroke-linecap="round" stroke-linejoin="round"/>
</svg>
