<svg width="50" height="50" viewBox="0 0 50 50" fill="none" xmlns="http://www.w3.org/2000/svg">
<path d="M45.4282 20.9198H43.7501V20.8334H25.0001V29.1667H36.774C35.0563 34.0177 30.4407 37.5 25.0001 37.5C18.097 37.5 12.5001 31.9031 12.5001 25C12.5001 18.0969 18.097 12.5 25.0001 12.5C28.1865 12.5 31.0855 13.7021 33.2928 15.6656L39.1855 9.77294C35.4647 6.30523 30.4876 4.16669 25.0001 4.16669C13.4949 4.16669 4.16675 13.4948 4.16675 25C4.16675 36.5052 13.4949 45.8334 25.0001 45.8334C36.5053 45.8334 45.8334 36.5052 45.8334 25C45.8334 23.6031 45.6897 22.2396 45.4282 20.9198Z" fill="#FFC107"/>
<path d="M6.56885 15.3031L13.4136 20.3229C15.2657 15.7375 19.7511 12.5 25.0001 12.5C28.1866 12.5 31.0855 13.7021 33.2928 15.6656L39.1855 9.77294C35.4647 6.30523 30.4876 4.16669 25.0001 4.16669C16.998 4.16669 10.0584 8.68439 6.56885 15.3031Z" fill="#FF3D00"/>
<path d="M25 45.8333C30.3812 45.8333 35.2708 43.7739 38.9677 40.425L32.5198 34.9687C30.3582 36.6136 27.7162 37.5029 25 37.5C19.5812 37.5 14.9802 34.0448 13.2469 29.2229L6.45312 34.4573C9.90104 41.2041 16.9031 45.8333 25 45.8333Z" fill="#4CAF50"/>
<path d="M45.4281 20.9198H43.75V20.8333H25V29.1666H36.774C35.9523 31.4754 34.4722 33.4929 32.5167 34.9698L32.5198 34.9677L38.9677 40.4239C38.5115 40.8385 45.8333 35.4166 45.8333 25C45.8333 23.6031 45.6896 22.2396 45.4281 20.9198Z" fill="#1976D2"/>
</svg>
