<svg width="40" height="40" viewBox="0 0 40 40" fill="none" xmlns="http://www.w3.org/2000/svg">
<path d="M26.6667 5C25.7827 5 24.9348 5.35119 24.3097 5.97631C23.6846 6.60143 23.3334 7.44928 23.3334 8.33333V18.3333C23.3334 19.2174 23.6846 20.0652 24.3097 20.6904C24.9348 21.3155 25.7827 21.6667 26.6667 21.6667C27.1087 21.6667 27.5327 21.8423 27.8452 22.1548C28.1578 22.4674 28.3334 22.8913 28.3334 23.3333V25C28.3334 25.8841 27.9822 26.7319 27.3571 27.357C26.7319 27.9821 25.8841 28.3333 25 28.3333C24.558 28.3333 24.1341 28.5089 23.8215 28.8215C23.509 29.134 23.3334 29.558 23.3334 30V33.3333C23.3334 33.7754 23.509 34.1993 23.8215 34.5118C24.1341 34.8244 24.558 35 25 35C27.6522 35 30.1957 33.9464 32.0711 32.0711C33.9465 30.1957 35 27.6522 35 25V8.33333C35 7.44928 34.6489 6.60143 34.0237 5.97631C33.3986 5.35119 32.5508 5 31.6667 5H26.6667Z" stroke="#F25C05" stroke-width="3.33333" stroke-linecap="round" stroke-linejoin="round"/>
<path d="M8.33333 5C7.44928 5 6.60143 5.35119 5.97631 5.97631C5.35119 6.60143 5 7.44928 5 8.33333V18.3333C5 19.2174 5.35119 20.0652 5.97631 20.6904C6.60143 21.3155 7.44928 21.6667 8.33333 21.6667C8.77536 21.6667 9.19928 21.8423 9.51184 22.1548C9.82441 22.4674 10 22.8913 10 23.3333V25C10 25.8841 9.64881 26.7319 9.02369 27.357C8.39857 27.9821 7.55072 28.3333 6.66667 28.3333C6.22464 28.3333 5.80072 28.5089 5.48816 28.8215C5.17559 29.134 5 29.558 5 30V33.3333C5 33.7754 5.17559 34.1993 5.48816 34.5118C5.80072 34.8244 6.22464 35 6.66667 35C9.31883 35 11.8624 33.9464 13.7377 32.0711C15.6131 30.1957 16.6667 27.6522 16.6667 25V8.33333C16.6667 7.44928 16.3155 6.60143 15.6904 5.97631C15.0652 5.35119 14.2174 5 13.3333 5H8.33333Z" stroke="#F25C05" stroke-width="3.33333" stroke-linecap="round" stroke-linejoin="round"/>
</svg>
