<svg width="24" height="24" viewBox="0 0 24 24" fill="none" xmlns="http://www.w3.org/2000/svg">
<g clip-path="url(#clip0_9_127)">
<path d="M11.8625 0.195126C11.9057 0.204303 11.949 0.213482 11.9935 0.222939C12.9426 0.428179 13.8321 0.750708 14.686 1.21146C14.7137 1.22622 14.7414 1.24097 14.77 1.25617C17.0166 2.46013 18.7092 4.56312 19.468 6.98326C20.2438 9.56086 19.9943 12.3289 18.7346 14.7159C18.4502 15.234 18.1311 15.7338 17.7409 16.1794C17.8137 16.3548 17.9238 16.4654 18.0578 16.5985C18.0808 16.6215 18.1038 16.6444 18.1275 16.6681C18.2046 16.745 18.282 16.8215 18.3594 16.8982C18.4148 16.9532 18.4702 17.0083 18.5255 17.0634C18.6447 17.1821 18.764 17.3006 18.8834 17.419C19.0724 17.6063 19.2609 17.794 19.4494 17.9817C19.8838 18.4141 20.3186 18.846 20.7534 19.2779C21.1517 19.6735 21.5498 20.0693 21.9476 20.4654C22.135 20.6519 22.3225 20.8382 22.5102 21.0242C22.6271 21.1402 22.7438 21.2564 22.8604 21.3726C22.9145 21.4263 22.9686 21.48 23.0228 21.5336C23.0969 21.6069 23.1707 21.6805 23.2445 21.7542C23.2858 21.7953 23.3272 21.8363 23.3698 21.8786C23.6616 22.1991 23.7296 22.4402 23.7244 22.8642C23.7031 23.1238 23.6294 23.2922 23.4369 23.4684C23.1998 23.6533 23.0294 23.7169 22.7255 23.7211C22.6741 23.7223 22.6227 23.7234 22.5698 23.7247C21.9863 23.6672 21.5199 23.0066 21.1257 22.6118C21.0722 22.5585 21.0188 22.5052 20.9654 22.4519C20.8217 22.3086 20.6783 22.165 20.5348 22.0216C20.3844 21.8711 20.2338 21.7208 20.0832 21.5705C19.7987 21.2863 19.5143 21.0022 19.23 20.7179C18.906 20.394 18.5819 20.0703 18.2578 19.7466C17.5916 19.0812 16.9256 18.4157 16.2598 17.7501C16.1354 17.8109 16.0249 17.8741 15.9137 17.9566C13.7263 19.5538 11.0659 20.1829 8.384 19.8086C5.86784 19.4098 3.50287 18.0372 1.9773 15.9859C0.830258 14.4033 0.0215028 12.4748 0.0019634 10.5002C0.00150798 10.462 0.00105255 10.4238 0.000583325 10.3844C-0.0276679 7.39692 0.969926 4.87627 3.06794 2.73598C4.33651 1.48146 6.05821 0.629791 7.78923 0.241323C7.83268 0.231542 7.87612 0.22176 7.92092 0.211683C9.16554 -0.0536142 10.6174 -0.0810947 11.8625 0.195126ZM4.33577 4.38139C4.2727 4.44414 4.20881 4.50614 4.14266 4.56564C2.9318 5.67803 2.27473 7.43102 2.04962 9.01883C2.04354 9.06135 2.03745 9.10394 2.03118 9.14782C1.90602 10.2367 2.04663 11.3494 2.37363 12.3912C2.38309 12.4217 2.39255 12.4521 2.40229 12.4835C2.73136 13.5124 3.30193 14.4599 4.0387 15.247C4.12312 15.3377 4.20144 15.4311 4.28008 15.5268C4.70906 16.015 5.24837 16.3949 5.79887 16.7337C5.8276 16.7517 5.85633 16.7696 5.88593 16.7881C7.66289 17.8839 9.85797 18.1504 11.8751 17.6766C13.2531 17.3283 14.4258 16.6137 15.4729 15.6712C15.5075 15.64 15.5422 15.6088 15.5779 15.5767C16.767 14.4454 17.4926 12.8729 17.7872 11.2825C17.7933 11.2502 17.7994 11.2179 17.8057 11.1847C18.1567 9.22683 17.6238 7.10794 16.5034 5.48092C16.3163 5.21614 16.1148 4.97022 15.893 4.73311C15.8047 4.63848 15.7211 4.54135 15.6378 4.44239C14.3415 2.97303 12.3485 2.19207 10.4276 2.04302C8.13717 1.92252 5.95206 2.76341 4.33577 4.38139Z" fill="#595959"/>
</g>
<defs>
<clipPath id="clip0_9_127">
<rect width="24" height="24" fill="white"/>
</clipPath>
</defs>
</svg>
