<svg width="32" height="32" viewBox="0 0 32 32" fill="none" xmlns="http://www.w3.org/2000/svg">
<path d="M9.33334 13.3334V29.3334" stroke="#F8F8F8" stroke-width="2.66667" stroke-linecap="round" stroke-linejoin="round"/>
<path d="M20 7.83996L18.6667 13.3333H26.44C26.854 13.3333 27.2623 13.4297 27.6326 13.6148C28.0028 13.8 28.3249 14.0688 28.5733 14.4C28.8217 14.7311 28.9896 15.1156 29.0636 15.5229C29.1377 15.9302 29.1159 16.3492 29 16.7466L25.8933 27.4133C25.7318 27.9672 25.3949 28.4538 24.9333 28.8C24.4717 29.1462 23.9103 29.3333 23.3333 29.3333H5.33332C4.62608 29.3333 3.9478 29.0523 3.4477 28.5522C2.94761 28.0521 2.66666 27.3739 2.66666 26.6666V16C2.66666 15.2927 2.94761 14.6144 3.4477 14.1143C3.9478 13.6142 4.62608 13.3333 5.33332 13.3333H9.01332C9.50944 13.333 9.99564 13.1944 10.4173 12.9329C10.8389 12.6715 11.1792 12.2976 11.4 11.8533L16 2.66663C16.6288 2.67441 17.2476 2.82418 17.8104 3.10475C18.3732 3.38532 18.8652 3.78944 19.2499 4.2869C19.6345 4.78436 19.9017 5.36231 20.0316 5.97756C20.1615 6.59282 20.1507 7.22947 20 7.83996Z" stroke="#F8F8F8" stroke-width="2.66667" stroke-linecap="round" stroke-linejoin="round"/>
</svg>
